<?xml version="1.0" standalone="no"?>
<!DOCTYPE svg PUBLIC "-//W3C//DTD SVG 20010904//EN"
 "http://www.w3.org/TR/2001/REC-SVG-20010904/DTD/svg10.dtd">
<svg version="1.0" xmlns="http://www.w3.org/2000/svg"
 width="40px" height="40px" viewBox="0 0 256.000000 256.000000"
 preserveAspectRatio="xMidYMid meet">

<g transform="translate(0.000000,256.000000) scale(0.100000,-0.100000)"
fill="#000000" stroke="none">
<path d="M1061 2245 c-83 -19 -194 -72 -251 -120 -65 -54 -126 -141 -147 -207
l-18 -58 -168 0 c-194 0 -162 16 -291 -148 l-89 -114 -50 -551 c-56 -617 -56
-605 11 -679 72 -80 50 -78 640 -78 570 0 564 -1 625 58 33 31 61 82 71 127 4
17 -16 273 -44 570 l-50 540 -75 110 c-42 61 -86 124 -99 140 l-24 30 -172 5
-171 5 31 62 c51 101 164 183 295 213 87 20 212 16 277 -9 117 -45 205 -158
228 -295 11 -58 9 -79 -10 -173 -26 -124 -23 -206 8 -295 l20 -56 -39 -38 -39
-38 0 -166 0 -166 228 -227 228 -227 154 0 153 0 134 132 133 132 0 159 0 159
-222 224 -223 224 -165 0 -166 0 -44 -45 c-24 -25 -48 -45 -52 -45 -11 0 -28
70 -28 119 0 24 7 71 16 105 24 89 22 225 -5 306 -45 135 -137 237 -267 297
-51 23 -75 27 -169 30 -70 2 -133 -3 -174 -12z m61 -597 l76 -113 48 -523 c54
-584 54 -556 -18 -594 -30 -17 -72 -18 -526 -18 -437 0 -498 2 -528 16 -41 20
-64 59 -64 111 0 20 21 260 46 533 l46 495 75 103 74 102 348 0 348 0 75 -112z
m1135 -450 l193 -192 0 -120 0 -121 -97 -97 -98 -98 -120 0 -120 0 -192 192
-193 193 0 116 c0 103 2 118 20 134 18 16 21 17 44 1 36 -23 63 -20 82 9 15
23 15 27 -4 59 l-20 33 41 42 42 41 114 0 115 0 193 -192z"/>
<path d="M477 1652 c-23 -26 -21 -58 5 -76 18 -13 55 -16 193 -16 188 0 208 5
208 55 0 50 -20 55 -213 55 -159 0 -179 -2 -193 -18z"/>
</g>
</svg>
